<svg class="atlassian-header-logo" width="156" height="20" viewBox="0 0 156 20" fill="none" xmlns="http://www.w3.org/2000/svg">
<g clip-path="url(#clip0_1355_3334)">
<path d="M97.7496 14.4597C97.7496 11.7179 96.2777 10.4192 92.1794 9.52451C89.8994 9.03388 89.351 8.51438 89.351 7.79286C89.351 6.89817 90.1591 6.49411 91.6599 6.49411C93.4781 6.49411 95.2675 7.04247 96.9703 7.82172V4.2141C95.787 3.60802 93.9399 3.14624 91.7754 3.14624C87.706 3.14624 85.5991 4.90676 85.5991 7.82172C85.5991 10.1306 86.667 11.9777 90.8807 12.7858C93.3916 13.3053 93.9111 13.7094 93.9111 14.5463C93.9111 15.3544 93.3916 15.8739 91.6022 15.8739C89.5531 15.8739 87.0999 15.1813 85.5125 14.2289V18.0096C86.7824 18.6446 88.4563 19.3372 91.5733 19.3372C95.9891 19.3372 97.7496 17.3747 97.7496 14.4597Z" fill="#1868DB"></path>
<path d="M142.139 3.37717V19.1064H145.486V7.12909L146.901 10.3038L151.634 19.1064H155.848V3.37717H152.5V13.5362L151.23 10.5924L147.42 3.37717H142.139Z" fill="#1868DB"></path>
<path d="M120.869 3.37717H117.203V19.0775H120.869V3.37717Z" fill="#1868DB"></path>
<path d="M112.959 14.4597C112.959 11.7179 111.487 10.4192 107.389 9.52451C105.109 9.03388 104.561 8.51438 104.561 7.79286C104.561 6.89817 105.369 6.49411 106.87 6.49411C108.688 6.49411 110.477 7.04247 112.18 7.82172V4.2141C110.997 3.60802 109.15 3.14624 106.985 3.14624C102.916 3.14624 100.809 4.90676 100.809 7.82172C100.809 10.1306 101.877 11.9777 106.09 12.7858C108.601 13.3053 109.121 13.7094 109.121 14.5463C109.121 15.3544 108.601 15.8739 106.812 15.8739C104.763 15.8739 102.31 15.1813 100.722 14.2289V18.0096C101.992 18.6446 103.666 19.3372 106.783 19.3372C111.228 19.3372 112.959 17.3747 112.959 14.4597Z" fill="#1868DB"></path>
<path d="M57.2007 3.37717V19.1064H64.7045L65.8878 15.7008H60.866V3.37717H57.2007Z" fill="#1868DB"></path>
<path d="M42.3376 3.37728V6.78288H46.407V19.1065H50.0724V6.78288H54.4304V3.37728H42.3376Z" fill="#1868DB"></path>
<path d="M36.9982 3.37707H32.1784L26.6948 19.1063H30.8797L31.6589 16.4511C32.5825 16.7108 33.5637 16.884 34.6027 16.884C35.6129 16.884 36.5941 16.7397 37.5465 16.4511L38.3258 19.1063H42.5106L36.9982 3.37707ZM34.5739 13.6227C33.8812 13.6227 33.1885 13.5073 32.5536 13.3341L34.5739 6.46519L36.5941 13.3341C35.9592 13.5073 35.2954 13.6227 34.5739 13.6227Z" fill="#1868DB"></path>
<path d="M77.6916 3.37713H72.8719L67.3883 19.0775H71.5731L72.3524 16.4223C73.2759 16.682 74.2572 16.8552 75.2962 16.8552C76.3063 16.8552 77.2876 16.7109 78.24 16.4223L79.0192 19.0775H83.2041L77.6916 3.37713ZM75.2673 13.6228C74.5746 13.6228 73.882 13.5073 73.247 13.3342L75.2673 6.46525L77.2876 13.3342C76.6526 13.5073 75.96 13.6228 75.2673 13.6228Z" fill="#1868DB"></path>
<path d="M134.028 3.37713H129.209L123.725 19.0775H127.91L128.689 16.4223C129.613 16.682 130.594 16.8552 131.633 16.8552C132.643 16.8552 133.624 16.7109 134.577 16.4223L135.356 19.0775H139.541L134.028 3.37713ZM131.633 13.6228C130.94 13.6228 130.248 13.5073 129.613 13.3342L131.633 6.46525L133.653 13.3342C132.989 13.5073 132.326 13.6228 131.633 13.6228Z" fill="#1868DB"></path>
<path d="M5.68241 8.83179C5.3938 8.51432 4.96089 8.54318 4.75886 8.91837L0.0545261 18.2982C-0.11864 18.6734 0.141109 19.1063 0.545162 19.1063H7.06774C7.26977 19.1063 7.47179 18.9908 7.55838 18.7888C9.00143 15.8739 8.1356 11.4581 5.68241 8.83179Z" fill="#1868DB"></path>
<path d="M9.11773 0.288996C6.49138 4.44497 6.66455 9.03387 8.39621 12.4972C10.1279 15.9605 11.4555 18.5868 11.5421 18.7889C11.6286 18.9909 11.8307 19.1063 12.0327 19.1063H18.5553C18.9593 19.1063 19.2479 18.6734 19.0459 18.2982C19.0459 18.2982 10.2722 0.750771 10.0413 0.317857C9.86812 -0.0861967 9.37748 -0.115058 9.11773 0.288996Z" fill="#1868DB"></path>
</g>
<defs>
<clipPath id="clip0_1355_3334">
<rect width="156" height="20" fill="white"></rect>
</clipPath>
</defs>
</svg>