<?xml version="1.0" encoding="utf-8"?>
<!-- Generator: Adobe Illustrator 25.2.3, SVG Export Plug-In . SVG Version: 6.00 Build 0)  -->
<svg version="1.1" id="Lager_1" xmlns="http://www.w3.org/2000/svg" xmlns:xlink="http://www.w3.org/1999/xlink" x="0px" y="0px"
	 viewBox="0 0 800 609" style="enable-background:new 0 0 800 609;" xml:space="preserve">
<style type="text/css">
	.st0{fill:#999999;}
	.st1{fill:#404040;}
	.st2{fill:#FFFFFF;stroke:#404040;stroke-width:4;stroke-linecap:round;stroke-linejoin:round;stroke-miterlimit:10;}
	.st3{fill:none;stroke:#404040;stroke-width:4;stroke-miterlimit:10;}
	.st4{fill:#4ED1A1;stroke:#404040;stroke-width:4;stroke-miterlimit:10;}
	.st5{fill:#FFFFFF;stroke:#404040;stroke-width:4;stroke-miterlimit:10;}
	.st6{fill:#B3E3FF;stroke:#404040;stroke-width:4;stroke-linejoin:round;stroke-miterlimit:10;}
	.st7{fill:#4ED1A1;stroke:#404040;stroke-width:4;stroke-linecap:round;stroke-linejoin:round;stroke-miterlimit:10;}
	.st8{fill:none;stroke:#404040;stroke-width:4;stroke-linecap:round;stroke-linejoin:round;stroke-miterlimit:10;}
</style>
<path class="st0" d="M319.8,10.3h-1.6v4.3h-1.5V4h4c2,0,3.3,1.4,3.3,3.2c0,1.5-1,2.7-2.6,3l2.5,4.5h-1.7L319.8,10.3L319.8,10.3z
	 M320.4,8.9c1.2,0,2-0.7,2-1.8s-0.8-1.8-2-1.8h-2.2v3.6C318.2,8.9,320.4,8.9,320.4,8.9z M332.6,12.5c-0.4,1.3-1.6,2.3-3.2,2.3
	c-1.9,0-3.6-1.4-3.6-3.9c0-2.3,1.6-3.8,3.4-3.8c2.2,0,3.5,1.5,3.5,3.8v0.4h-5.4c0,1.3,1,2.2,2.2,2.2s1.8-0.6,2-1.5
	C331.5,12,332.6,12.5,332.6,12.5z M331.1,10.3c0-1-0.7-1.8-2-1.8c-1.2,0-1.9,0.9-2,1.8H331.1z M335.2,14.6V3.7h1.4v4.7
	c0.3-0.6,1.2-1.2,2.4-1.2c2.2,0,3.3,1.7,3.3,3.8s-1.2,3.8-3.4,3.8c-1.1,0-1.9-0.5-2.3-1.2v1C336.6,14.6,335.2,14.6,335.2,14.6z
	 M338.7,8.4c-1.2,0-2.1,1-2.1,2.5c0,1.6,0.9,2.6,2.1,2.6c1.3,0,2.1-1,2.1-2.6C340.8,9.4,340,8.4,338.7,8.4z M346.5,10.5l1.9-0.3
	c0.4-0.1,0.6-0.3,0.6-0.5c0-0.7-0.5-1.3-1.6-1.3c-1,0-1.5,0.6-1.6,1.5l-1.4-0.3c0.2-1.4,1.4-2.3,3-2.3c2.2,0,3,1.2,3,2.6v3.6
	c0,0.6,0.1,1,0.1,1.2h-1.4c0-0.2-0.1-0.5-0.1-1c-0.3,0.5-1,1.2-2.3,1.2c-1.5,0-2.4-1-2.4-2.2C344.4,11.4,345.3,10.7,346.5,10.5
	L346.5,10.5z M349,11.5v-0.3l-2.2,0.3c-0.6,0.1-1,0.4-1,1.1c0,0.5,0.4,1,1.2,1C348.1,13.6,349,13.1,349,11.5z M354,12.3
	c0.1,0.8,0.7,1.3,1.7,1.3c0.8,0,1.2-0.4,1.2-1c0-0.4-0.3-0.8-0.9-0.9l-1.2-0.3c-1.1-0.2-1.8-1-1.8-2c0-1.2,1.2-2.3,2.6-2.3
	c2,0,2.6,1.3,2.7,1.9L357,9.6c-0.1-0.4-0.4-1.2-1.5-1.2c-0.7,0-1.2,0.5-1.2,1c0,0.4,0.3,0.8,0.8,0.9l1.2,0.3c1.3,0.3,2,1.1,2,2.1
	s-0.9,2.2-2.6,2.2c-2,0-2.8-1.3-2.9-2.1L354,12.3L354,12.3z M361.6,3.6c0.6,0,1,0.4,1,1s-0.4,1-1,1s-1-0.5-1-1S361.1,3.6,361.6,3.6z
	 M360.9,14.6V7.4h1.4v7.2H360.9z M366.9,14.6h-1.4V7.4h1.4v1c0.5-0.9,1.4-1.2,2.2-1.2c1.7,0,2.6,1.2,2.6,2.9v4.6h-1.4v-4.3
	c0-1-0.4-1.8-1.7-1.8c-1.1,0-1.7,0.9-1.7,2V14.6z M375.5,14.7c0.1,1,0.9,1.8,2,1.8c1.5,0,2.2-0.8,2.2-2.3v-1
	c-0.3,0.7-1.1,1.2-2.2,1.2c-1.9,0-3.3-1.5-3.3-3.5c0-1.9,1.3-3.5,3.3-3.5c1.1,0,1.9,0.4,2.2,1.1v-1h1.4v6.7c0,1.8-0.9,3.6-3.6,3.6
	c-1.8,0-3.1-1.1-3.3-2.7C374.2,15.1,375.5,14.7,375.5,14.7z M379.7,10.8c0-1.4-0.8-2.3-2.1-2.3c-1.2,0-2.1,0.9-2.1,2.3
	s0.8,2.3,2.1,2.3S379.7,12.2,379.7,10.8z M395.4,11c0,2.2-1.5,3.8-3.7,3.8S388,13.2,388,11s1.5-3.8,3.7-3.8S395.4,8.8,395.4,11z
	 M393.9,11c0-1.7-1.1-2.6-2.2-2.6s-2.2,0.9-2.2,2.6s1.1,2.6,2.2,2.6S393.9,12.7,393.9,11z M399.3,14.6h-1.4V7.4h1.4v1
	c0.5-0.9,1.4-1.2,2.2-1.2c1.7,0,2.6,1.2,2.6,2.9v4.6h-1.4v-4.3c0-1-0.4-1.8-1.7-1.8c-1.1,0-1.7,0.9-1.7,2V14.6z M409,7.4h1.6v1.3
	H409v3.8c0,0.7,0.3,1,1,1c0.2,0,0.4,0,0.6-0.1v1.2c-0.1,0-0.5,0.1-1,0.1c-1.2,0-2-0.8-2-2.1v-4h-1.4V7.4h0.4c0.8,0,1.1-0.5,1.1-1.1
	V5.1h1.3V7.4z M419.9,11c0,2.2-1.5,3.8-3.7,3.8s-3.7-1.6-3.7-3.8s1.5-3.8,3.7-3.8S419.9,8.8,419.9,11z M418.4,11
	c0-1.7-1.1-2.6-2.2-2.6S414,9.3,414,11s1.1,2.6,2.2,2.6S418.4,12.7,418.4,11z M434,14.6V9.9h-5.4v4.7h-1.5V4h1.5v4.5h5.4V4h1.5v10.6
	H434z M438.9,14.6V4h6.5v1.4h-5v3.3h4.5V10h-4.5v3.3h5v1.4L438.9,14.6L438.9,14.6z M454.6,11.6h-4.7l-1.1,3h-1.6L451.4,4h1.7
	l4.2,10.6h-1.6L454.6,11.6z M450.4,10.3h3.7l-1.8-4.8L450.4,10.3L450.4,10.3z M459.5,14.6V4h3.7c2.7,0,5.1,1.8,5.1,5.3
	s-2.4,5.3-5.1,5.3H459.5z M463.2,13.3c2,0,3.6-1.3,3.6-4s-1.6-4-3.6-4H461v8H463.2z M470.4,10.9V9.7h4.1v1.2H470.4z M478.3,8.9
	l2.9-2.6h-4.6V4.9h6.6v1.3l-2.8,2.6c1.4,0,3,1,3,3c0,1.6-1.3,3.1-3.5,3.1s-3.5-1.5-3.6-3.1l1.4-0.3c0.1,1.3,1,2.1,2.2,2.1
	c1.3,0,2.1-0.8,2.1-1.8c0-1.3-1-1.8-2-1.8c-0.3,0-0.6,0.1-0.9,0.2L478.3,8.9L478.3,8.9z"/>
<path class="st1" d="M350.8,591.9c2,0,3.2,1.2,3.2,2.9c0,1.1-0.7,2-1.6,2.3c1.2,0.3,1.9,1.4,1.9,2.6c0,1.7-1.3,2.9-3.3,2.9h-3.7V592
	h3.5V591.9z M350.6,596.5c1.2,0,1.9-0.7,1.9-1.7s-0.7-1.7-1.9-1.7h-1.8v3.4H350.6z M350.8,601.2c1.2,0,2-0.7,2-1.7s-0.6-1.7-1.9-1.7
	h-2.1v3.4H350.8z M360.9,596.7h-0.6c-1.2,0-2,0.6-2,2.2v3.6h-1.4v-7.2h1.4v1.3c0.5-1.1,1.4-1.4,2.2-1.4h0.5v1.5L360.9,596.7z
	 M364.9,598.4l1.9-0.3c0.4-0.1,0.6-0.3,0.6-0.5c0-0.7-0.5-1.3-1.6-1.3c-1,0-1.5,0.6-1.6,1.5l-1.4-0.3c0.2-1.4,1.4-2.3,3-2.3
	c2.2,0,3,1.2,3,2.6v3.6c0,0.6,0.1,1,0.1,1.2h-1.4c0-0.2-0.1-0.5-0.1-1c-0.3,0.5-1,1.2-2.3,1.2c-1.5,0-2.4-1-2.4-2.2
	C362.7,599.3,363.6,598.6,364.9,598.4L364.9,598.4z M367.4,599.4v-0.3l-2.2,0.3c-0.6,0.1-1.1,0.4-1.1,1.1c0,0.5,0.4,1,1.2,1
	C366.5,601.6,367.4,601,367.4,599.4z M373.1,602.5h-1.4v-7.2h1.4v1c0.5-0.9,1.4-1.2,2.2-1.2c1.7,0,2.6,1.2,2.6,2.9v4.6h-1.4v-4.3
	c0-1-0.4-1.8-1.7-1.8c-1.1,0-1.7,0.9-1.7,2V602.5z M386,601.4c-0.3,0.7-1.1,1.3-2.2,1.3c-2.1,0-3.4-1.7-3.4-3.8c0-2,1.4-3.8,3.4-3.8
	c1.3,0,2,0.6,2.2,1.2v-4.7h1.4v9.5c0,0.7,0.1,1.2,0.1,1.3H386c0-0.2-0.1-0.5-0.1-1H386z M383.9,601.5c1.3,0,2.1-1.1,2.1-2.6
	s-0.8-2.5-2.1-2.5s-2.1,1-2.1,2.5S382.5,601.5,383.9,601.5z M402.4,602.5l-5.7-8.7v8.7h-1.5v-10.6h2l5.3,8.2v-8.2h1.5v10.6H402.4
	L402.4,602.5z M413.5,600.5c-0.4,1.3-1.6,2.3-3.2,2.3c-1.9,0-3.6-1.4-3.6-3.9c0-2.3,1.6-3.8,3.4-3.8c2.2,0,3.5,1.5,3.5,3.8v0.4h-5.4
	c0,1.3,1,2.2,2.2,2.2s1.8-0.6,2-1.5L413.5,600.5z M412,598.2c0-1-0.7-1.8-2-1.8c-1.2,0-1.9,0.9-2,1.8H412z M421.5,595.3l1.9,5.4
	l1.6-5.4h1.5l-2.3,7.2h-1.5l-1.9-5.5l-1.9,5.5h-1.5l-2.4-7.2h1.5l1.6,5.4l1.9-5.4H421.5L421.5,595.3z M432.6,597.2
	c0-3.6,2.6-5.5,5.3-5.5c2.4,0,4.1,1.3,4.7,3.4l-1.4,0.5c-0.4-1.6-1.6-2.5-3.3-2.5c-1.9,0-3.8,1.4-3.8,4.2s1.8,4.2,3.8,4.2
	c1.8,0,3-1.1,3.4-2.5l1.3,0.5c-0.6,2-2.2,3.4-4.7,3.4C435.1,602.7,432.6,600.7,432.6,597.2L432.6,597.2z M451.6,598.9
	c0,2.2-1.5,3.8-3.7,3.8s-3.7-1.6-3.7-3.8s1.5-3.8,3.7-3.8S451.6,596.7,451.6,598.9z M450.2,598.9c0-1.7-1.1-2.6-2.2-2.6
	s-2.2,0.9-2.2,2.6c0,1.7,1,2.6,2.2,2.6S450.2,600.6,450.2,598.9z M454.2,602.5v-7.2h1.3v1c0.4-0.8,1.4-1.2,2.2-1.2
	c0.9,0,1.8,0.4,2.2,1.4c0.6-1,1.5-1.4,2.4-1.4c1.3,0,2.5,0.9,2.5,2.7v4.7h-1.4V598c0-0.9-0.5-1.7-1.5-1.7s-1.7,0.8-1.7,1.8v4.4h-1.4
	V598c0-0.9-0.4-1.7-1.5-1.7c-1,0-1.7,0.8-1.7,1.8v4.3h-1.4V602.5z M467.8,602.5v-7.2h1.3v1c0.4-0.8,1.4-1.2,2.2-1.2
	c0.9,0,1.8,0.4,2.2,1.4c0.6-1,1.5-1.4,2.4-1.4c1.3,0,2.5,0.9,2.5,2.7v4.7H477V598c0-0.9-0.5-1.7-1.5-1.7s-1.7,0.8-1.7,1.8v4.4h-1.4
	V598c0-0.9-0.4-1.7-1.5-1.7c-1,0-1.7,0.8-1.7,1.8v4.3h-1.4V602.5z M482.1,591.6c0.6,0,1,0.4,1,1s-0.4,1-1,1s-1-0.5-1-1
	C481.1,592,481.5,591.6,482.1,591.6z M481.4,602.5v-7.2h1.4v7.2H481.4z M487.8,595.3h1.6v1.3h-1.6v3.8c0,0.7,0.3,1,1,1
	c0.2,0,0.4,0,0.6-0.1v1.2c-0.1,0-0.5,0.1-1,0.1c-1.2,0-2-0.8-2-2.1v-4H485v-1.3h0.4c0.8,0,1.1-0.5,1.1-1.1V593h1.3V595.3
	L487.8,595.3z"/>
<path class="st2" d="M315.4,597h13 M317.3,592.4l9.2,9.2 M326.5,592.4l-9.2,9.2 M321.9,590.5v13"/>
<path class="st3" d="M227,386h216.1 M284.7,345c0,22.6-18.4,41-41,41 M284.7,345c0-22.6,18.4-41,41-41h311.2"/>
<circle class="st4" cx="369.1" cy="304" r="21"/>
<circle class="st4" cx="465.3" cy="304" r="21"/>
<circle class="st4" cx="561.6" cy="304" r="21"/>
<circle class="st4" cx="657.9" cy="304" r="21"/>
<path class="st3" d="M73.7,386h170"/>
<circle class="st5" cx="94.7" cy="386" r="21"/>
<circle class="st5" cx="190.7" cy="386" r="21"/>
<circle class="st6" cx="368.1" cy="386" r="21"/>
<circle class="st6" cx="464.1" cy="386" r="21"/>
<path class="st7" d="M607.9,163h100v50h-100V163z"/>
<path class="st1" d="M631.1,194v-10.6h6.5v1.4h-5v3.4h4.5v1.4h-4.5v4.5L631.1,194L631.1,194z M645.7,192c-0.4,1.3-1.6,2.3-3.2,2.3
	c-1.9,0-3.6-1.4-3.6-3.9c0-2.3,1.6-3.8,3.4-3.8c2.2,0,3.5,1.5,3.5,3.8v0.4h-5.4c0,1.3,1,2.2,2.2,2.2s1.8-0.6,2-1.5L645.7,192z
	 M644.3,189.7c0-1-0.7-1.8-2-1.8c-1.2,0-1.9,0.9-2,1.8H644.3z M650.1,189.9l1.9-0.3c0.4-0.1,0.6-0.3,0.6-0.5c0-0.7-0.5-1.3-1.6-1.3
	c-1,0-1.5,0.6-1.6,1.5L648,189c0.2-1.4,1.4-2.3,3-2.3c2.2,0,3,1.2,3,2.6v3.6c0,0.6,0.1,1,0.1,1.2h-1.4c0-0.2-0.1-0.5-0.1-1
	c-0.3,0.5-1,1.2-2.3,1.2c-1.5,0-2.4-1-2.4-2.2C647.9,190.8,648.8,190.1,650.1,189.9z M652.6,190.9v-0.3l-2.2,0.3
	c-0.6,0.1-1.1,0.4-1.1,1.1c0,0.5,0.4,1,1.2,1C651.6,193.1,652.6,192.5,652.6,190.9z M658.8,186.8h1.6v1.3h-1.6v3.8c0,0.7,0.3,1,1,1
	c0.2,0,0.4,0,0.6-0.1v1.2c-0.1,0-0.5,0.1-1,0.1c-1.2,0-2-0.8-2-2.1v-4H656v-1.3h0.4c0.8,0,1.1-0.5,1.1-1.1v-1.2h1.3L658.8,186.8
	L658.8,186.8z M665.6,194.2c-1.7,0-2.7-1.3-2.7-2.9v-4.5h1.4v4.3c0,1,0.4,1.9,1.6,1.9c1.1,0,1.7-0.8,1.7-1.8v-4.4h1.4v5.9
	c0,0.6,0,1.1,0.1,1.3h-1.4c0-0.2-0.1-0.6-0.1-0.9C667.4,193.9,666.5,194.2,665.6,194.2L665.6,194.2z M676.2,188.2h-0.6
	c-1.2,0-2,0.6-2,2.2v3.6h-1.4v-7.2h1.4v1.3c0.5-1.1,1.4-1.4,2.2-1.4h0.5v1.5L676.2,188.2z M684.7,192c-0.4,1.3-1.6,2.3-3.2,2.3
	c-1.9,0-3.6-1.4-3.6-3.9c0-2.3,1.6-3.8,3.4-3.8c2.2,0,3.5,1.5,3.5,3.8v0.4h-5.4c0,1.3,1,2.2,2.2,2.2s1.8-0.6,2-1.5L684.7,192z
	 M683.3,189.7c0-1-0.7-1.8-2-1.8c-1.2,0-1.9,0.9-2,1.8H683.3z"/>
<path class="st8" d="M657.9,258.8v-23.5 M668.8,250.1L657.9,261l-10.8-10.9"/>
<path class="st6" d="M414.1,478h100v50h-100L414.1,478z"/>
<path class="st8" d="M464.1,431.4v23.5 M453.2,440.1l10.9-10.8l10.9,10.8"/>
<path class="st2" d="M458.8,304h13 M460.8,299.4l9.1,9.2 M469.9,299.4l-9.1,9.2 M465.3,297.5v13 M555.1,304h13 M557,299.4l9.2,9.2
	 M566.2,299.4l-9.2,9.2 M561.6,297.5v13 M651.4,304h13 M653.3,299.4l9.2,9.2 M662.5,299.4l-9.2,9.2 M657.9,297.5v13"/>
<path class="st8" d="M367.2,260.7c-9.3-36.1-41.8-62.9-80.7-63.4"/>
<path class="st1" d="M217.1,202.3v-4.7h-5.4v4.7h-1.5v-10.6h1.5v4.5h5.4v-4.5h1.5v10.6H217.1z M222.1,202.3v-10.6h6.5v1.4h-5v3.3
	h4.5v1.4h-4.5v3.3h5v1.4h-6.5V202.3z M237.7,199.3H233l-1.1,3h-1.6l4.2-10.6h1.7l4.2,10.6h-1.6L237.7,199.3L237.7,199.3z M233.5,198
	h3.7l-1.8-4.8L233.5,198z M242.7,202.3v-10.6h3.7c2.7,0,5.1,1.8,5.1,5.3s-2.4,5.3-5.1,5.3H242.7z M246.4,201c2,0,3.6-1.3,3.6-4
	s-1.6-4-3.6-4h-2.2v8H246.4z M253.6,198.6v-1.2h4.1v1.2H253.6z M261.4,196.6l2.9-2.6h-4.6v-1.4h6.6v1.3l-2.8,2.6c1.4,0,3,1,3,3
	c0,1.6-1.3,3.1-3.5,3.1s-3.5-1.5-3.6-3.1l1.4-0.3c0.1,1.3,1,2.1,2.2,2.1c1.3,0,2.1-0.8,2.1-1.8c0-1.3-1-1.8-2-1.8
	c-0.3,0-0.6,0.1-0.9,0.2L261.4,196.6L261.4,196.6z"/>
<path class="st8" d="M374.5,247.2l-6.7,13.9l-13.8-6.7"/>
<path class="st1" d="M478,92.5h-1.6v4.3h-1.5V86.2h4c2,0,3.3,1.4,3.3,3.2c0,1.5-1,2.7-2.6,3l2.5,4.5h-1.7L478,92.5L478,92.5z
	 M478.7,91.2c1.2,0,2-0.7,2-1.8s-0.8-1.8-2-1.8h-2.2v3.6C476.5,91.2,478.7,91.2,478.7,91.2z M490.8,94.8c-0.4,1.3-1.6,2.3-3.2,2.3
	c-1.9,0-3.6-1.4-3.6-3.9c0-2.3,1.6-3.8,3.4-3.8c2.2,0,3.5,1.5,3.5,3.8v0.4h-5.4c0,1.3,1,2.2,2.2,2.2s1.8-0.6,2-1.5L490.8,94.8z
	 M489.4,92.5c0-1-0.7-1.8-2-1.8c-1.2,0-1.9,0.9-2,1.8H489.4z M493.4,96.8V86h1.4v4.7c0.3-0.6,1.2-1.2,2.4-1.2c2.2,0,3.3,1.7,3.3,3.8
	c0,2.1-1.2,3.8-3.4,3.8c-1.1,0-1.9-0.5-2.3-1.2v1h-1.4V96.8z M496.9,90.6c-1.2,0-2.1,1-2.1,2.5c0,1.6,0.9,2.6,2.1,2.6
	c1.3,0,2.1-1,2.1-2.6C499,91.6,498.2,90.6,496.9,90.6z M504.8,92.7l1.9-0.3c0.4-0.1,0.6-0.3,0.6-0.5c0-0.7-0.5-1.3-1.6-1.3
	c-1,0-1.5,0.6-1.6,1.5l-1.4-0.3c0.2-1.4,1.4-2.3,3-2.3c2.2,0,3,1.2,3,2.6v3.6c0,0.6,0.1,1,0.1,1.2h-1.4c0-0.2-0.1-0.5-0.1-1
	c-0.3,0.5-1,1.2-2.3,1.2c-1.5,0-2.4-1-2.4-2.2C502.6,93.6,503.5,92.9,504.8,92.7L504.8,92.7z M507.3,93.7v-0.3l-2.2,0.3
	c-0.6,0.1-1.1,0.4-1.1,1.1c0,0.5,0.4,1,1.2,1C506.3,95.9,507.3,95.3,507.3,93.7z M512.2,94.5c0.1,0.8,0.7,1.3,1.7,1.3
	c0.8,0,1.2-0.4,1.2-1c0-0.4-0.3-0.8-0.9-0.9l-1.2-0.3c-1.1-0.2-1.8-1-1.8-2c0-1.2,1.2-2.3,2.6-2.3c2,0,2.6,1.3,2.7,1.9l-1.2,0.5
	c-0.1-0.4-0.4-1.2-1.5-1.2c-0.7,0-1.2,0.5-1.2,1c0,0.4,0.3,0.8,0.8,0.9l1.2,0.3c1.3,0.3,2,1.1,2,2.1S515.7,97,514,97
	c-2,0-2.8-1.3-2.9-2.1L512.2,94.5z M525.4,94.8c-0.4,1.3-1.6,2.3-3.2,2.3c-1.9,0-3.6-1.4-3.6-3.9c0-2.3,1.6-3.8,3.4-3.8
	c2.2,0,3.5,1.5,3.5,3.8v0.4H520c0,1.3,1,2.2,2.2,2.2s1.8-0.6,2-1.5L525.4,94.8L525.4,94.8z M523.9,92.5c0-1-0.7-1.8-2-1.8
	c-1.2,0-1.9,0.9-2,1.8H523.9z M539.2,93.2c0,2.2-1.5,3.8-3.7,3.8s-3.7-1.6-3.7-3.8c0-2.2,1.5-3.8,3.7-3.8S539.2,91,539.2,93.2z
	 M537.8,93.2c0-1.7-1.1-2.6-2.2-2.6s-2.2,0.9-2.2,2.6s1,2.6,2.2,2.6S537.8,94.9,537.8,93.2z M543.2,96.8h-1.4v-7.2h1.4v1
	c0.5-0.9,1.4-1.2,2.2-1.2c1.7,0,2.6,1.2,2.6,2.9v4.6h-1.4v-4.3c0-1-0.4-1.8-1.7-1.8c-1.1,0-1.7,0.9-1.7,2L543.2,96.8L543.2,96.8z
	 M551,96.8V86h1.4v10.9L551,96.8L551,96.8z M555.8,99.8l1.8-3.8l-3.1-6.4h1.6l2.2,5l2.2-5h1.5l-4.7,10.2
	C557.3,99.8,555.8,99.8,555.8,99.8z M570.5,89.6h1.6v1.3h-1.6v3.8c0,0.7,0.3,1,1,1c0.2,0,0.4,0,0.6-0.1v1.2c-0.1,0-0.5,0.1-1,0.1
	c-1.2,0-2-0.8-2-2.1v-4h-1.4v-1.3h0.4c0.8,0,1.1-0.5,1.1-1.1v-1.2h1.3L570.5,89.6L570.5,89.6z M576.1,96.8h-1.4V86h1.4v4.5
	c0.5-0.8,1.4-1.1,2.2-1.1c1.7,0,2.6,1.2,2.6,2.9v4.6h-1.4v-4.3c0-1-0.4-1.8-1.7-1.8c-1.1,0-1.6,0.8-1.7,1.9L576.1,96.8L576.1,96.8z
	 M590.2,94.8c-0.4,1.3-1.6,2.3-3.2,2.3c-1.9,0-3.6-1.4-3.6-3.9c0-2.3,1.6-3.8,3.4-3.8c2.2,0,3.5,1.5,3.5,3.8v0.4h-5.4
	c0,1.3,1,2.2,2.2,2.2s1.8-0.6,2-1.5L590.2,94.8z M588.7,92.5c0-1-0.7-1.8-2-1.8c-1.2,0-1.9,0.9-2,1.8H588.7z M593.4,94.5
	c0.1,0.8,0.7,1.3,1.7,1.3c0.8,0,1.2-0.4,1.2-1c0-0.4-0.3-0.8-0.9-0.9l-1.2-0.3c-1.1-0.2-1.8-1-1.8-2c0-1.2,1.2-2.3,2.6-2.3
	c2,0,2.6,1.3,2.7,1.9l-1.2,0.5c-0.1-0.4-0.4-1.2-1.5-1.2c-0.7,0-1.2,0.5-1.2,1c0,0.4,0.3,0.8,0.8,0.9l1.2,0.3c1.3,0.3,2,1.1,2,2.1
	s-0.9,2.2-2.6,2.2c-2,0-2.8-1.3-2.9-2.1L593.4,94.5L593.4,94.5z M606.5,94.8c-0.4,1.3-1.6,2.3-3.2,2.3c-1.9,0-3.6-1.4-3.6-3.9
	c0-2.3,1.6-3.8,3.4-3.8c2.2,0,3.5,1.5,3.5,3.8v0.4h-5.4c0,1.3,1,2.2,2.2,2.2s1.8-0.6,2-1.5L606.5,94.8z M605.1,92.5
	c0-1-0.7-1.8-2-1.8c-1.2,0-1.9,0.9-2,1.8H605.1z M614.4,93.2c0,1.6,1,2.5,2.2,2.5c1.3,0,1.8-0.9,2-1.5l1.2,0.5
	c-0.3,1-1.4,2.2-3.3,2.2c-2.1,0-3.6-1.6-3.6-3.8c0-2.2,1.6-3.8,3.6-3.8c1.9,0,2.9,1.2,3.2,2.3l-1.3,0.5c-0.2-0.7-0.7-1.5-1.9-1.5
	C615.5,90.7,614.4,91.5,614.4,93.2L614.4,93.2z M629,93.2c0,2.2-1.5,3.8-3.7,3.8s-3.7-1.6-3.7-3.8c0-2.2,1.5-3.8,3.7-3.8
	S629,91,629,93.2z M627.6,93.2c0-1.7-1.1-2.6-2.2-2.6s-2.2,0.9-2.2,2.6s1,2.6,2.2,2.6S627.6,94.9,627.6,93.2z M631.6,96.8v-7.2h1.3
	v1c0.4-0.8,1.4-1.2,2.2-1.2c0.9,0,1.8,0.4,2.2,1.4c0.6-1,1.5-1.4,2.4-1.4c1.3,0,2.5,0.9,2.5,2.7v4.7h-1.4v-4.5
	c0-0.9-0.5-1.6-1.5-1.6s-1.7,0.8-1.7,1.8v4.4h-1.4v-4.5c0-0.9-0.4-1.6-1.5-1.6c-1,0-1.7,0.8-1.7,1.8v4.3h-1.4L631.6,96.8z
	 M645.2,96.8v-7.2h1.3v1c0.4-0.8,1.4-1.2,2.2-1.2c0.9,0,1.8,0.4,2.2,1.4c0.6-1,1.5-1.4,2.4-1.4c1.3,0,2.5,0.9,2.5,2.7v4.7h-1.4v-4.5
	c0-0.9-0.5-1.6-1.5-1.6s-1.7,0.8-1.7,1.8v4.4h-1.4v-4.5c0-0.9-0.4-1.6-1.5-1.6c-1,0-1.7,0.8-1.7,1.8v4.3h-1.4L645.2,96.8z
	 M659.5,85.9c0.6,0,1,0.4,1,1s-0.4,1-1,1s-1-0.5-1-1C658.4,86.3,658.9,85.9,659.5,85.9z M658.8,96.8v-7.2h1.4v7.2H658.8z
	 M665.2,89.6h1.6v1.3h-1.6v3.8c0,0.7,0.3,1,1,1c0.2,0,0.4,0,0.6-0.1v1.2c-0.1,0-0.5,0.1-1,0.1c-1.2,0-2-0.8-2-2.1v-4h-1.4v-1.3h0.4
	c0.8,0,1.1-0.5,1.1-1.1v-1.2h1.3L665.2,89.6L665.2,89.6z M670.1,94.5c0.1,0.8,0.7,1.3,1.7,1.3c0.8,0,1.2-0.4,1.2-1
	c0-0.4-0.3-0.8-0.9-0.9l-1.2-0.3c-1.1-0.2-1.8-1-1.8-2c0-1.2,1.2-2.3,2.6-2.3c2,0,2.6,1.3,2.7,1.9l-1.2,0.5
	c-0.1-0.4-0.4-1.2-1.5-1.2c-0.7,0-1.2,0.5-1.2,1c0,0.4,0.3,0.8,0.8,0.9l1.2,0.3c1.3,0.3,2,1.1,2,2.1s-0.9,2.2-2.6,2.2
	c-2,0-2.8-1.3-2.9-2.1L670.1,94.5L670.1,94.5z"/>
<path class="st8" d="M422.3,142.8v-14h304v14 M574.3,128.8v-14"/>
<g>
	<path d="M448.1,509v-10h2l2.4,7.1c0.2,0.7,0.4,1.2,0.5,1.5c0.1-0.4,0.3-0.9,0.5-1.6l2.4-7h1.8v10h-1.3v-8.4l-2.9,8.4h-1.2l-2.9-8.5
		v8.5H448.1z"/>
	<path d="M465.1,508.1c-0.5,0.4-0.9,0.7-1.3,0.8c-0.4,0.2-0.9,0.2-1.4,0.2c-0.8,0-1.4-0.2-1.8-0.6c-0.4-0.4-0.6-0.9-0.6-1.5
		c0-0.4,0.1-0.7,0.2-1c0.2-0.3,0.4-0.5,0.6-0.7c0.3-0.2,0.6-0.3,0.9-0.4c0.2-0.1,0.6-0.1,1.1-0.2c1-0.1,1.7-0.3,2.2-0.4
		c0-0.2,0-0.3,0-0.3c0-0.5-0.1-0.9-0.3-1.1c-0.3-0.3-0.8-0.4-1.4-0.4c-0.6,0-1,0.1-1.3,0.3c-0.3,0.2-0.5,0.6-0.6,1.1l-1.2-0.2
		c0.1-0.5,0.3-0.9,0.5-1.2c0.3-0.3,0.6-0.6,1.1-0.7c0.5-0.2,1-0.3,1.6-0.3c0.6,0,1.1,0.1,1.5,0.2s0.7,0.3,0.9,0.6
		c0.2,0.2,0.3,0.5,0.4,0.8c0,0.2,0.1,0.6,0.1,1.1v1.6c0,1.1,0,1.9,0.1,2.2c0.1,0.3,0.2,0.6,0.3,0.9h-1.3
		C465.2,508.8,465.1,508.5,465.1,508.1z M465,505.4c-0.4,0.2-1.1,0.3-2,0.5c-0.5,0.1-0.9,0.2-1.1,0.2s-0.4,0.2-0.5,0.4
		c-0.1,0.2-0.2,0.4-0.2,0.6c0,0.3,0.1,0.6,0.4,0.8c0.2,0.2,0.6,0.3,1.1,0.3c0.5,0,0.9-0.1,1.3-0.3c0.4-0.2,0.6-0.5,0.8-0.9
		c0.1-0.3,0.2-0.7,0.2-1.2V505.4z"/>
	<path d="M468.9,500.4V499h1.2v1.4H468.9z M468.9,509v-7.3h1.2v7.3H468.9z"/>
	<path d="M472.7,509v-7.3h1.1v1c0.5-0.8,1.3-1.2,2.3-1.2c0.4,0,0.8,0.1,1.2,0.2c0.4,0.2,0.6,0.4,0.8,0.6s0.3,0.6,0.4,0.9
		c0,0.2,0.1,0.6,0.1,1.2v4.5h-1.2v-4.4c0-0.5,0-0.9-0.1-1.1c-0.1-0.2-0.3-0.4-0.5-0.6c-0.2-0.1-0.5-0.2-0.9-0.2
		c-0.5,0-1,0.2-1.4,0.5c-0.4,0.3-0.6,1-0.6,1.9v4H472.7z"/>
</g>
</svg>
